<svg width="24" height="24" viewBox="0 0 24 24" fill="none" xmlns="http://www.w3.org/2000/svg">
<path d="M5.69402 12L2.29902 3.27C2.06302 2.663 2.65502 2.082 3.24102 2.289L3.33402 2.328L21.334 11.328C21.4501 11.386 21.5491 11.4731 21.6215 11.5808C21.6938 11.6885 21.737 11.8131 21.7468 11.9425C21.7566 12.0719 21.7326 12.2016 21.6773 12.3189C21.6219 12.4363 21.5371 12.5372 21.431 12.612L21.334 12.67L3.33402 21.67C2.75102 21.961 2.11702 21.425 2.26902 20.822L2.29902 20.727L5.69402 12ZM4.40202 4.54L7.01202 11.25H13.639C13.8203 11.25 13.9954 11.3156 14.1319 11.4348C14.2685 11.5539 14.3574 11.7184 14.382 11.898L14.389 12C14.389 12.1814 14.3232 12.3566 14.2039 12.4932C14.0845 12.6298 13.9198 12.7186 13.74 12.743L13.639 12.75H7.01002L4.40102 19.46L19.322 12L4.40202 4.54Z" fill="#4F4F4F"/>
</svg>
