<svg width="28" height="28" viewBox="0 0 28 28" fill="none" xmlns="http://www.w3.org/2000/svg">
<path d="M20.3438 1.22552C19.9938 3.07888 20.7156 4.19998 22.1266 4.85131C22.3781 5.2981 22.586 5.74217 22.75 6.18513C21.9133 5.25435 20.9289 4.80099 19.5781 5.46763C20.3492 6.9781 21.525 7.2406 22.9414 6.74842C23.2805 7.89685 23.3625 9.02342 23.286 10.1609C23.286 10.1719 23.286 10.1828 23.2805 10.1937C23.3352 10.2265 23.3899 10.2539 23.4391 10.2867C23.7071 10.4453 23.9696 10.6094 24.2211 10.7734C24.243 10.5929 24.2594 10.407 24.2703 10.2265C24.336 9.26404 24.2922 8.2906 24.0899 7.30076C25.5555 7.57966 26.4414 6.83045 26.9774 5.46217C25.6539 5.31998 24.5219 5.52888 23.9531 6.7156C23.811 6.20154 23.625 5.68201 23.3899 5.1592C24.686 4.2924 25.4516 3.18662 24.8117 1.46123C23.5813 1.92771 22.9797 2.67146 22.8266 3.61974C22.575 2.42427 21.8914 1.53123 20.3438 1.22552ZM10.4289 3.42506C10.0297 4.53302 9.6469 6.0156 9.40627 7.48123C9.23127 8.56951 9.11643 9.65232 9.09455 10.5929C10.7571 12.0094 12.5563 13.032 14.5524 13.125C12.7367 10.2539 11.1071 6.56248 10.4289 3.42506ZM3.10737 5.58904C3.2758 9.71248 4.85901 15.3617 9.16018 18.3422L9.46096 18.55L9.35158 18.8945C9.17658 19.4469 8.92502 19.9336 8.53127 20.3054C8.13205 20.6773 7.60705 20.9179 6.96174 21.0328C5.73127 21.2515 4.00096 21.0765 1.38963 20.6117C0.864631 21.9297 0.936272 23.3789 1.41315 24.5547C1.89002 25.7195 2.74151 26.5562 3.71549 26.775C5.07448 25.0359 7.12033 22.925 9.9258 23.0508C12.7696 23.1765 16.0235 22.389 17.9594 20.4476C18.643 19.7695 19.2281 18.1344 19.5672 16.6961C19.9063 15.2578 20.043 14.0164 20.043 14.0164L20.0758 13.6828L20.4039 13.5953C21.5852 13.289 23.0071 13.0101 24.5985 12.2062C24.1281 11.889 23.5758 11.5172 22.936 11.1344C21.9571 10.5547 20.8797 10.0515 20.3492 9.99138C19.4414 9.89841 18.9274 10.0625 18.5719 10.325C18.2219 10.5875 17.9922 10.9922 17.7899 11.4789C17.593 11.9656 17.4399 12.5179 17.1664 13.0156C16.8875 13.5187 16.4008 13.989 15.7008 14.0656C12.6383 14.4211 10.0242 12.8133 7.83127 10.7789C6.02658 9.10545 4.46362 7.12576 3.10737 5.58904ZM23.6742 13.6828C23.286 13.825 22.9141 13.9508 22.5586 14.0547C22.4602 14.432 22.3563 14.8094 22.2524 15.1867L23.2039 15.4492C23.368 14.864 23.5266 14.2734 23.6742 13.6828Z" fill="black"/>
</svg>
