<svg width="15" height="15" viewBox="0 0 15 15" fill="none" xmlns="http://www.w3.org/2000/svg">
<path d="M4.68748 3.5L3.12498 4.375L3.99998 2.8125L3.12498 1.25L4.68748 2.125L6.24998 1.25L5.37498 2.8125L6.24998 4.375L4.68748 3.5ZM12.1875 9.625L13.75 8.75L12.875 10.3125L13.75 11.875L12.1875 11L10.625 11.875L11.5 10.3125L10.625 8.75L12.1875 9.625ZM13.75 1.25L12.875 2.8125L13.75 4.375L12.1875 3.5L10.625 4.375L11.5 2.8125L10.625 1.25L12.1875 2.125L13.75 1.25ZM8.33748 7.9875L9.86248 6.4625L8.53748 5.1375L7.01248 6.6625L8.33748 7.9875ZM8.98123 4.55625L10.4437 6.01875C10.6875 6.25 10.6875 6.65625 10.4437 6.9L3.14998 14.1937C2.90623 14.4375 2.49998 14.4375 2.26873 14.1937L0.806226 12.7313C0.562476 12.5 0.562476 12.0937 0.806226 11.85L8.09998 4.55625C8.34373 4.3125 8.74998 4.3125 8.98123 4.55625Z" fill="black"/>
</svg>
